<svg xmlns="http://www.w3.org/2000/svg" viewBox="0 0 4.25 4.25"><defs><style>.cls-1{fill:#00a8bf;}</style></defs><g id="Слой_2" data-name="Слой 2"><g id="Слой_1-2" data-name="Слой 1"><g id="Слой_2-2" data-name="Слой 2"><g id="Слой_1-2-2" data-name="Слой 1-2"><path class="cls-1" d="M.63.75l.12.53a.27.27,0,0,1-.19.32.25.25,0,0,1-.3-.2L0,.33A.26.26,0,0,1,.18,0,.22.22,0,0,1,.36,0L4.11,1.89a.27.27,0,0,1,.12.35h0a.3.3,0,0,1-.12.13L.36,4.23A.25.25,0,0,1,0,4.1H0a.31.31,0,0,1,0-.19l.5-1.85a.27.27,0,0,1,.23-.2h1a.27.27,0,0,1,0,.53H.94L.65,3.5,3.41,2.13Z"/></g></g></g></g></svg>